<!--?xml version="1.0" standalone="no"?-->

<svg version="1.0" xmlns="http://www.w3.org/2000/svg" width="100%" height="100%" viewBox="0 0 512.000000 512.000000" preserveAspectRatio="xMidYMid meet" style="">

<g transform="translate(0.000000,512.000000) scale(0.100000,-0.100000)" fill="#000000" stroke="none">
<path d="M2325 5010 c-625 -56 -1130 -291 -1560 -724 -199 -202 -338 -394
-455 -631 -185 -376 -260 -739 -247 -1200 9 -289 47 -517 127 -749 126 -364
298 -636 584 -921 394 -393 829 -609 1391 -692 168 -24 579 -24 755 0 190 27
311 54 471 107 447 147 794 402 1080 794 91 125 100 157 47 173 -21 6 -32 15
-29 24 2 8 6 42 8 77 6 68 15 82 41 60 22 -18 99 -41 112 -33 27 17 123 239
185 430 l43 130 68 48 c38 26 70 51 71 55 2 4 -19 39 -45 79 l-48 71 -54 -34
c-51 -32 -56 -33 -68 -17 -7 9 -11 22 -9 28 2 5 39 31 83 56 77 44 79 47 85
90 8 53 6 57 -38 76 -31 12 -34 17 -29 41 4 15 9 48 13 75 l6 47 -51 0 c-50 0
-52 -1 -78 -45 -21 -36 -29 -43 -40 -34 -8 6 -20 9 -28 6 -20 -8 -76 30 -76
52 0 15 -10 20 -52 25 -46 6 -64 2 -136 -29 -46 -19 -96 -35 -112 -35 -32 0
-60 23 -60 49 0 15 -12 19 -67 24 -38 4 -117 7 -177 7 l-109 0 6 -32 c16 -91
16 -101 0 -50 -9 28 -22 52 -29 52 -7 0 -52 -9 -99 -20 -47 -11 -90 -20 -95
-20 -6 0 -17 18 -26 40 -15 37 -19 40 -54 40 -32 0 -44 -6 -68 -36 -17 -20
-35 -33 -41 -30 -17 11 -13 -19 7 -54 17 -31 17 -31 -12 -56 -21 -19 -33 -44
-48 -102 -11 -42 -24 -83 -30 -89 -6 -7 -32 -13 -59 -13 l-49 0 0 -115 0 -114
-62 -78 c-120 -148 -277 -247 -473 -300 -90 -23 -118 -26 -280 -27 -209 -1
-297 16 -442 84 -116 54 -195 113 -294 218 -119 127 -193 262 -240 440 -31
112 -38 364 -14 503 39 241 135 430 299 594 206 205 443 293 756 282 203 -7
347 -50 490 -147 159 -108 302 -310 385 -547 11 -31 27 -55 39 -60 14 -6 270
7 726 38 388 27 715 48 726 49 12 0 24 7 28 15 7 19 -65 280 -119 430 -150
414 -330 702 -606 970 -364 353 -783 559 -1295 635 -160 24 -475 34 -629 20z
m1911 -2642 c4 -6 15 -49 24 -95 16 -76 16 -83 1 -87 -53 -15 -184 -37 -189
-31 -4 4 -14 42 -23 86 -20 96 -17 100 86 122 90 19 92 19 101 5z m329 -189
c21 -67 33 -78 72 -60 33 15 37 10 18 -25 -8 -16 -15 -35 -15 -41 0 -17 -22
-16 -106 6 -93 24 -94 25 -84 64 4 17 11 44 14 59 6 25 45 57 72 58 6 0 19
-27 29 -61z m-874 -26 c46 -25 86 -47 88 -49 3 -2 -94 -190 -105 -202 -1 -2
-30 11 -63 28 l-60 32 -3 87 c-3 84 7 122 37 143 16 12 17 11 106 -39z m451
-92 c4 -4 5 -44 1 -89 l-6 -82 -47 0 c-26 0 -69 3 -95 7 l-47 6 6 76 c4 45 12
80 20 86 15 11 156 8 168 -4z m627 -238 c5 -21 13 -54 16 -74 l7 -37 -49 -10
c-26 -6 -64 -13 -84 -17 l-36 -7 -13 67 c-15 79 -11 85 63 101 83 18 85 18 96
-23z m-444 -165 c3 -13 7 -48 8 -78 l2 -55 -73 -9 c-41 -4 -77 -4 -82 0 -12
14 -20 117 -11 133 5 8 36 17 72 21 35 4 67 8 71 9 4 0 10 -9 13 -21z m174
-277 l23 -18 -30 -34 -31 -34 -25 25 -26 25 25 28 c30 32 33 32 64 8z" class="svg-elem-1"></path>
<path d="M3156 2803 l-19 -26 27 -24 c33 -28 42 -27 64 10 17 27 16 29 -8 47
-33 26 -41 25 -64 -7z" class="svg-elem-2"></path>
<path d="M4955 2794 c-43 -19 -81 -36 -82 -38 -3 -2 65 -173 73 -185 2 -2 40
12 86 31 l83 35 -1 39 c-2 46 -48 154 -66 153 -7 -1 -49 -16 -93 -35z" class="svg-elem-3"></path>
<path d="M3956 2798 c-11 -35 -46 -189 -46 -201 0 -17 208 -73 221 -60 12 13
57 213 49 218 -4 3 -48 14 -96 25 -49 12 -97 23 -107 26 -9 3 -19 -1 -21 -8z" class="svg-elem-4"></path>
<path d="M3377 2693 c-12 -11 -8 -23 8 -23 8 0 15 7 15 15 0 16 -12 20 -23 8z" class="svg-elem-5"></path>
<path d="M4282 2600 c-23 -32 -42 -63 -42 -68 0 -9 120 -96 124 -90 1 1 21 30
45 62 46 67 48 59 -35 119 l-51 36 -41 -59z" class="svg-elem-6"></path>
<path d="M3599 2646 c-3 -3 -3 -21 -1 -41 4 -33 6 -35 44 -35 l39 0 -3 38 c-3
35 -5 37 -38 40 -20 2 -38 1 -41 -2z" class="svg-elem-7"></path>
<path d="M3783 2643 c-24 -5 -27 -20 -17 -83 l6 -35 56 5 c46 4 57 8 56 23 0
9 -1 35 -2 57 -2 40 -2 40 -39 39 -21 -1 -48 -4 -60 -6z" class="svg-elem-8"></path>
<path d="M3265 2478 l-27 -32 31 -28 c17 -15 35 -28 39 -27 4 0 18 14 31 30
23 29 23 30 5 50 -36 40 -50 41 -79 7z" class="svg-elem-9"></path>
<path d="M4995 1848 c-11 -6 -22 -12 -24 -14 -6 -6 21 -64 30 -64 15 0 59 23
59 31 0 18 -24 59 -34 59 -6 0 -20 -6 -31 -12z" class="svg-elem-10"></path>
</g>
</svg>
